<svg xmlns="http://www.w3.org/2000/svg" fill="none" viewBox="0 0 40 41" height="41" width="40">
<path fill="#2F7D39" d="M4.53564 17.4557L19.3554 9.52764V7.68407L4.53564 15.6122V17.4557ZM20.7479 10.3703V12.2376L35.4648 4.8673V3L20.7479 10.3703ZM4.53564 24.2959L19.3554 16.3678V14.5242L4.53564 22.4524V24.2959ZM20.7479 19.0975L35.4648 11.7273V9.85995L20.7479 17.2302V19.0975ZM4.53564 31.1559L19.3554 23.2278V21.3842L4.53564 29.3123V31.1559ZM20.7479 25.9377L35.4648 18.5674V16.7041L20.7479 24.0744V25.9377ZM4.53564 38L19.3554 30.0719V28.2283L4.53564 36.1525V38ZM20.7479 32.7818L35.4648 25.4116V23.5482L20.7479 30.9185V32.7818Z"/>
</svg>