<svg xmlns="http://www.w3.org/2000/svg" fill="none" viewBox="0 0 40 41" height="41" width="40">
<path fill="#2F7D39" d="M33.0154 15.1639C34.1486 15.1639 35.067 14.2831 35.067 13.1963C35.067 12.1096 34.1486 11.2288 33.0154 11.2288C31.8822 11.2288 30.9638 12.1096 30.9638 13.1963C30.9638 13.3846 31.0008 13.5621 31.0489 13.7326L25.1681 16.9893C24.0645 15.4764 22.3054 14.4322 20.2871 14.244V7.44998C21.0981 7.18716 21.6869 6.45911 21.6869 5.59254C21.6869 4.50577 20.7685 3.625 19.6353 3.625C18.5021 3.625 17.5837 4.50577 17.5837 5.59254C17.5837 6.45911 18.1725 7.18716 18.9835 7.44998V14.244C17.0504 14.4216 15.3543 15.3876 14.2433 16.8011L8.99935 13.896C9.01787 13.7859 9.03639 13.6722 9.03639 13.5586C9.03639 12.4718 8.11796 11.591 6.98475 11.591C5.85153 11.591 4.93311 12.4718 4.93311 13.5586C4.93311 14.6453 5.85153 15.5261 6.98475 15.5261C7.52543 15.5261 8.01427 15.3201 8.3809 14.9934L13.5767 17.8701C13.1397 18.726 12.8878 19.6885 12.8878 20.7042C12.8878 21.9579 13.2656 23.1228 13.91 24.1137L8.155 27.2994C7.8217 27.0756 7.41803 26.9442 6.98104 26.9442C5.85153 26.9407 4.93311 27.8214 4.93311 28.9082C4.93311 29.995 5.85153 30.8757 6.98475 30.8757C8.11796 30.8757 9.03639 29.995 9.03639 28.9082C9.03639 28.6987 8.99195 28.4998 8.92899 28.3115L14.7025 25.1152C15.7987 26.2446 17.3022 27.0046 18.9909 27.1609V33.55C18.1799 33.8128 17.5911 34.5409 17.5911 35.4075C17.5911 36.4942 18.5095 37.375 19.6427 37.375C20.7759 37.375 21.6943 36.4942 21.6943 35.4075C21.6943 34.5409 21.1055 33.8128 20.2945 33.55V27.1609C21.7721 27.0259 23.1053 26.4257 24.1496 25.5236L29.6713 28.5815C29.6528 28.688 29.638 28.7981 29.638 28.9118C29.638 29.9985 30.5564 30.8793 31.6896 30.8793C32.8228 30.8793 33.7412 29.9985 33.7412 28.9118C33.7412 27.825 32.8228 26.9442 31.6896 26.9442C31.1452 26.9442 30.6564 27.1502 30.2898 27.4805L25.0421 24.5789C25.8865 23.4957 26.3939 22.1568 26.3939 20.7042C26.3939 19.7702 26.1828 18.8823 25.8087 18.0796L31.7896 14.7661C32.134 15.0111 32.5562 15.1639 33.0154 15.1639ZM19.639 25.9711C16.6134 25.9711 14.1544 23.6058 14.1544 20.7007C14.1544 17.7955 16.6171 15.4302 19.639 15.4302C22.6646 15.4302 25.1273 17.7955 25.1273 20.7007C25.1273 23.6093 22.6646 25.9711 19.639 25.9711Z" clip-rule="evenodd" fill-rule="evenodd"/>
</svg>