<svg xmlns="http://www.w3.org/2000/svg" fill="none" viewBox="0 0 147 54" height="54" width="147">
<path stroke-width="1.5" stroke="#0F2E2F" d="M142.172 53.1964H142.172L58.981 53.25H58.9805H6.85157C3.83248 53.1998 1.42725 50.7478 1.42725 47.7259V6.16683C1.42725 3.19861 3.83104 0.75 6.84554 0.75H58.981H142.172C144.43 0.75 146.25 2.60216 146.25 4.87984V49.0665C146.25 51.3442 144.43 53.1964 142.172 53.1964Z"/>
<ellipse stroke-width="1.5" stroke="#0F2E2F" ry="17.7632" rx="17.7576" cy="27.7104" cx="28.3797"/>
<path fill="#0F2E2F" d="M27.0181 29.5221C27.0181 32.3464 24.7681 34.5846 21.6609 34.5846C18.2859 34.5846 16.6787 32.5596 16.3037 30.428L18.9287 30.3747C19.143 31.4405 20.1609 32.3997 21.6609 32.3997C23.1609 32.3997 24.4467 31.2273 24.4467 29.4688C24.4467 27.8701 23.2145 26.6444 21.6609 26.6444C20.3216 26.6444 19.6252 27.2839 19.1966 28.03L16.6251 27.7635L17.8037 19.7168H25.8931V21.8484H19.8395L19.3038 25.6852C19.893 24.9925 20.9109 24.5128 21.9824 24.5128C24.9288 24.4596 27.0181 26.4313 27.0181 29.5221Z"/>
<path fill="#0F2E2F" d="M38.4293 32.0797V34.2645H27.9292C27.9292 30.9606 29.6435 29.6816 32.1614 28.0297C34.6793 26.3777 35.59 25.8448 35.59 23.9264C35.59 22.7007 34.7329 21.6882 33.2328 21.6882C31.6793 21.6882 30.715 22.8073 30.715 24.4593H28.0899C28.0899 21.4218 30.2864 19.5566 33.2864 19.5566C36.1257 19.5566 38.2151 21.2619 38.2151 23.8198C38.2151 26.2178 37.09 27.3369 35.1079 28.829C33.5007 30.0547 31.84 30.8007 31.1435 32.0264L38.4293 32.0797Z"/>
<path fill="#0F2E2F" d="M53.1612 13.0547V24.0856H51.6611V13.0547H53.1612Z"/>
<path fill="#0F2E2F" d="M62.9647 14.2803H59.5361V24.0856H58.036V14.2803H54.6074V13.0547H62.9647V14.2803Z"/>
<path fill="#0F2E2F" d="M71.3225 22.86V24.0856H64.251V13.0547H71.2689V14.2803H65.751V17.8507H70.9475V19.0764H65.751V22.86H71.3225Z"/>
<path fill="#0F2E2F" d="M81.3402 23.1797C81.1795 22.9132 81.0724 22.7001 81.0188 22.4869C80.9117 22.2738 80.8045 21.954 80.7509 21.581C80.4831 20.835 80.2688 20.3021 80.0009 19.8757C79.7331 19.4494 79.3581 19.183 78.9295 19.0764C79.6259 18.9165 80.1616 18.5435 80.5902 18.0106C81.0188 17.4777 81.2331 16.8382 81.2331 16.1988C81.2331 15.2928 80.9117 14.5468 80.2688 13.9606C79.6259 13.3211 78.7152 13.0547 77.483 13.0547H73.1973V24.0856H74.6973V19.556H77.0009C77.5902 19.556 78.0723 19.7159 78.3938 20.0356C78.7152 20.3553 78.9831 20.7817 79.1974 21.4211C79.2241 21.5277 79.2643 21.6476 79.3112 21.7875C79.3581 21.9274 79.4116 22.0873 79.4652 22.2738C79.5724 22.6468 79.6795 22.9665 79.7866 23.2862L79.7866 23.2863C79.8938 23.606 80.0009 23.8725 80.1616 24.0856H81.8224V23.9257C81.6081 23.7126 81.4474 23.4461 81.3402 23.1797ZM79.1433 17.7439C78.7147 18.1702 78.1254 18.33 77.3754 18.33L74.6432 18.2768V14.2268H77.2682C78.929 14.2268 79.7326 14.8662 79.7326 16.1452C79.7326 16.8379 79.5183 17.3708 79.1433 17.7439Z" clip-rule="evenodd" fill-rule="evenodd"/>
<path fill="#0F2E2F" d="M85.1437 20.835H90.0723L91.358 24.0856H92.9116L88.5723 13.0547H86.6973L82.3579 24.0856H83.9115L85.1437 20.835ZM89.6445 19.6623H85.573L87.6088 14.3867H87.6623L89.6445 19.6623Z" clip-rule="evenodd" fill-rule="evenodd"/>
<path fill="#0F2E2F" d="M100.197 14.2803H96.7685V24.0856H95.2685V14.2803H91.8398V13.0547H100.197V14.2803Z"/>
<path fill="#0F2E2F" d="M103.09 13.0547V24.0856H101.59V13.0547H103.09Z"/>
<path fill="#0F2E2F" d="M116.377 18.5443C116.377 16.9456 115.895 15.5601 114.824 14.441C113.806 13.322 112.359 12.7891 110.591 12.7891C108.824 12.7891 107.431 13.322 106.359 14.441C105.341 15.5601 104.806 16.9456 104.806 18.5443C104.806 20.143 105.288 21.5285 106.359 22.6476C107.431 23.7667 108.824 24.3529 110.591 24.3529C112.359 24.3529 113.752 23.7667 114.824 22.6476C115.842 21.5285 116.377 20.143 116.377 18.5443ZM114.985 18.5443C114.985 19.77 114.556 20.8358 113.806 21.7417C113.003 22.6476 111.985 23.0739 110.645 23.0739C109.306 23.0739 108.235 22.6476 107.485 21.7417C106.681 20.8358 106.306 19.77 106.306 18.5443C106.306 17.3187 106.735 16.2529 107.485 15.3469C108.288 14.441 109.306 14.0147 110.645 14.0147C111.985 14.0147 113.056 14.441 113.806 15.3469C114.61 16.2529 114.985 17.3187 114.985 18.5443Z" clip-rule="evenodd" fill-rule="evenodd"/>
<path fill="#0F2E2F" d="M119.859 13.0547L124.199 20.0356L125.484 22.0606V19.8225V13.0547H126.984V24.0856H125.163L120.877 17.158C120.716 16.9448 120.502 16.6251 120.234 16.1455C119.966 15.7192 119.752 15.3994 119.591 15.1863V17.531V24.0856H118.091V13.0547H119.859Z"/>
<path fill="#0F2E2F" d="M134.484 14.5471C134.109 14.174 133.52 14.0142 132.77 14.0142C132.073 14.0142 131.538 14.174 131.109 14.4938C130.627 14.8135 130.413 15.2931 130.413 15.9326C130.413 16.4655 130.627 16.8385 131.109 17.105C131.591 17.3714 132.234 17.6378 133.091 17.9043C133.145 17.9043 133.359 17.9576 133.627 18.0642C133.895 18.1707 134.109 18.224 134.216 18.224C134.27 18.2773 134.484 18.3306 134.752 18.3839C135.02 18.4372 135.234 18.5438 135.288 18.5971C135.395 18.6503 135.556 18.7036 135.77 18.8102C135.984 18.9168 136.145 19.0234 136.252 19.13C136.306 19.2365 136.466 19.3431 136.573 19.503C136.734 19.6628 136.788 19.8227 136.841 19.9826C136.895 20.1425 136.948 20.3023 137.002 20.5155C137.056 20.7286 137.056 20.9418 137.056 21.155C137.056 21.8477 136.841 22.4872 136.413 22.9668C135.984 23.4464 135.448 23.8727 134.859 24.0859C134.27 24.299 133.573 24.4056 132.877 24.4056C131.591 24.4056 130.52 24.0859 129.716 23.4464C128.913 22.8069 128.538 21.901 128.538 20.6221H130.038C130.038 21.4214 130.305 22.0609 130.841 22.4872C131.377 22.9135 132.02 23.1267 132.931 23.1267C133.627 23.1267 134.27 22.9668 134.806 22.5938C135.341 22.274 135.609 21.7944 135.609 21.155C135.609 20.9951 135.609 20.8885 135.556 20.7819C135.502 20.6753 135.502 20.5688 135.448 20.4622C135.395 20.3556 135.341 20.3023 135.234 20.1957C135.127 20.0892 135.073 20.0359 135.02 19.9826C134.966 19.9293 134.859 19.876 134.752 19.8227C134.591 19.7694 134.484 19.7161 134.431 19.6628C134.377 19.6096 134.216 19.5563 134.056 19.503C133.895 19.4497 133.788 19.3964 133.681 19.3964C133.627 19.3964 133.466 19.3431 133.252 19.2898C133.038 19.2365 132.931 19.1832 132.823 19.1832C132.341 19.0234 131.966 18.9168 131.698 18.8635C131.43 18.8102 131.109 18.6503 130.68 18.4905C130.252 18.3306 129.984 18.1175 129.77 17.9576C129.555 17.7977 129.395 17.5313 129.234 17.1582C129.073 16.8385 128.966 16.4655 128.966 16.0925C128.966 15.08 129.288 14.2806 130.091 13.6944C130.841 13.1082 131.752 12.8418 132.823 12.8418C134.002 12.8418 134.913 13.1082 135.609 13.7477C136.306 14.3339 136.681 15.1865 136.734 16.3056H135.234C135.073 15.453 134.859 14.9201 134.484 14.5471Z"/>
<path fill="#0F2E2F" d="M56.4291 38.1017V38.4215C56.4291 38.9011 56.4291 39.2741 56.3755 39.5939H57.8755C57.8219 39.061 57.7684 38.5281 57.7684 37.9419V34.4248C57.7684 34.1583 57.7684 33.8919 57.7148 33.6254C57.7148 33.4488 57.6413 33.2357 57.5551 32.986C57.5373 32.9342 57.5189 32.8809 57.5005 32.8261C57.3398 32.5596 57.1791 32.2932 56.9648 32.08C56.7505 31.8669 56.4291 31.707 56.0005 31.5471C55.6255 31.4406 55.1433 31.334 54.554 31.334C53.5897 31.334 52.8397 31.6004 52.304 32.1333C51.7683 32.6662 51.5004 33.2524 51.4469 33.9452H52.8397C52.8933 33.4656 53.054 33.1458 53.3755 32.8794C53.6969 32.6129 54.1255 32.5064 54.6076 32.5064C55.1969 32.5064 55.6255 32.6129 55.9469 32.8261C56.2684 33.0392 56.4291 33.359 56.4291 33.6787C56.4291 33.9985 56.3219 34.2649 56.1076 34.4248C55.8933 34.6379 55.5183 34.7445 54.9826 34.8511C54.9137 34.8854 54.8004 34.8976 54.6285 34.9162C54.5332 34.9264 54.4199 34.9387 54.2862 34.9577C53.9112 35.011 53.5897 35.0642 53.3755 35.1175C53.3106 35.1337 53.2359 35.1498 53.1543 35.1674C52.9665 35.208 52.7424 35.2564 52.5183 35.3307C52.1433 35.4373 51.8754 35.5971 51.6611 35.757C51.4469 35.9169 51.2861 36.13 51.1254 36.4498C51.0183 36.7695 50.9111 37.0892 50.9111 37.4623C50.9111 38.1017 51.179 38.6346 51.6611 39.1142C52.1433 39.5939 52.8397 39.807 53.7505 39.807C54.554 39.807 55.1433 39.5939 55.5719 39.2741C56.0005 38.9011 56.3219 38.5281 56.4291 38.1017ZM56.4294 35.8632C56.4294 36.7692 56.2151 37.5152 55.733 37.9415C55.2508 38.3678 54.6615 38.6343 54.0187 38.581C53.4829 38.581 53.1079 38.4744 52.7865 38.2613C52.4651 37.9948 52.3043 37.7284 52.3043 37.3553C52.3043 36.9823 52.3579 36.6626 52.6793 36.5027C53.0008 36.3428 53.4829 36.183 54.1258 36.0764C54.9294 35.9165 55.4651 35.7567 55.7865 35.5435C56.0544 35.3303 56.2687 35.1172 56.3758 34.7974H56.4294V35.8632Z" clip-rule="evenodd" fill-rule="evenodd"/>
<path fill="#0F2E2F" d="M65.4824 32.1861C65.9645 32.7722 66.1788 33.465 66.1788 34.3709V39.54H64.7859V34.4775C64.7859 33.1453 64.1966 32.5058 63.0716 32.5058C62.4288 32.5058 61.893 32.719 61.4645 33.1453C61.0359 33.5716 60.8216 34.3176 60.8216 35.2768V39.54H59.4287V31.5466H60.8216V33.1986C60.9287 32.719 61.1966 32.2926 61.6252 31.9196C62.0537 31.5466 62.5895 31.3867 63.2323 31.3867C64.2502 31.3867 65.0002 31.6532 65.4824 32.1861Z"/>
<path fill="#0F2E2F" d="M75.1787 39.5407V28.5098H73.7322V33.1992C73.5715 32.6663 73.3037 32.2933 72.8215 31.9203C72.3394 31.5473 71.7501 31.3874 71.0001 31.3874C69.8215 31.3874 68.9107 31.8137 68.2679 32.5598C67.5714 33.3058 67.25 34.3183 67.25 35.544C67.25 36.7696 67.5714 37.7821 68.2679 38.5815C68.9643 39.3275 69.875 39.7538 71.0001 39.7538C71.7501 39.7538 72.3394 39.5407 72.8215 39.2209C73.2501 38.8479 73.5715 38.4749 73.7322 37.942V39.5407H75.1787ZM73.7853 35.4907C73.7853 36.3967 73.571 37.0894 73.196 37.6756C72.821 38.2618 72.1781 38.5815 71.2674 38.4749C70.4102 38.4749 69.7674 38.2085 69.3388 37.6223C68.9102 37.0894 68.6959 36.3434 68.6959 35.4907C68.6959 34.6381 68.8567 33.9453 69.3388 33.3592C69.7674 32.8263 70.4102 32.5065 71.2138 32.5065C72.071 32.5065 72.6603 32.773 73.1424 33.3592C73.571 33.9453 73.7853 34.6381 73.7853 35.4907Z" clip-rule="evenodd" fill-rule="evenodd"/>
<path fill="#0F2E2F" d="M83.3223 39.7532C82.0902 39.7532 81.0723 39.3801 80.3223 38.5808C79.5723 37.7815 79.1973 36.8222 79.1973 35.5966C79.1973 34.3709 79.5723 33.3584 80.3223 32.5591C81.0723 31.7597 82.0902 31.3867 83.3223 31.3867C84.2866 31.3867 85.0902 31.5999 85.6795 32.0795C86.2688 32.5591 86.6438 33.1986 86.8581 33.9446H85.4652C85.0902 32.9854 84.3402 32.5058 83.3223 32.5058C82.5187 32.5058 81.8759 32.8255 81.3937 33.3584C80.9116 33.9446 80.6437 34.6374 80.6437 35.5433C80.6437 36.3959 80.9116 37.142 81.3937 37.6749C81.8759 38.2611 82.5187 38.5275 83.3223 38.5275C84.3938 38.5275 85.1438 38.0479 85.5188 37.0354H86.9652C86.3759 38.8472 85.1974 39.7532 83.3223 39.7532Z"/>
<path fill="#0F2E2F" d="M87.5547 35.596C87.5547 36.7684 87.9297 37.7809 88.6797 38.5802C89.4297 39.3263 90.394 39.7526 91.6262 39.7526C92.8583 39.7526 93.8226 39.3796 94.5726 38.5802C95.3226 37.7809 95.6977 36.7684 95.6977 35.596C95.6977 34.4237 95.3226 33.4112 94.5726 32.6118C93.8226 31.8658 92.8583 31.4395 91.6262 31.4395C90.394 31.4395 89.4297 31.8125 88.6797 32.6118C87.9297 33.4112 87.5547 34.4237 87.5547 35.596ZM94.3043 35.543C94.3043 36.3956 94.0364 37.0884 93.5543 37.6746C93.0185 38.2608 92.3757 38.5805 91.6257 38.5805C90.8757 38.5805 90.2328 38.2608 89.7506 37.6746C89.2685 37.0884 89.0006 36.3956 89.0006 35.543C89.0006 34.6904 89.2685 33.9976 89.7506 33.4114C90.2328 32.8785 90.8221 32.5588 91.6257 32.5588C92.4293 32.5588 93.0721 32.8252 93.5543 33.4114C94.0364 33.9976 94.3043 34.6904 94.3043 35.543Z" clip-rule="evenodd" fill-rule="evenodd"/>
<path fill="#0F2E2F" d="M103.519 31.5469V39.5403H102.126V37.9416C102.019 38.4212 101.751 38.8475 101.322 39.2206C100.894 39.5936 100.358 39.7535 99.7152 39.7535C98.6973 39.7535 98.0009 39.487 97.5187 38.9008C97.0366 38.3146 96.8223 37.6219 96.8223 36.716V31.5469H98.2151V36.6094C98.2151 37.9416 98.8044 38.5811 99.9295 38.5811C100.572 38.5811 101.108 38.3679 101.537 37.9416C101.965 37.5153 102.179 36.8225 102.179 35.8633V31.5469L103.519 31.5469Z"/>
<path fill="#0F2E2F" d="M111.181 32.1861C111.663 32.7722 111.877 33.465 111.877 34.3709V39.54H110.484V34.4775C110.484 33.1453 109.895 32.5058 108.77 32.5058C108.127 32.5058 107.591 32.719 107.163 33.1453C106.734 33.5716 106.52 34.3176 106.52 35.2768V39.54H105.127V31.5466H106.52V33.1986C106.627 32.719 106.895 32.2926 107.323 31.9196C107.752 31.5466 108.288 31.3867 108.931 31.3867C109.948 31.3867 110.698 31.6532 111.181 32.1861Z"/>
<path fill="#0F2E2F" d="M115.252 32.7191V37.3553C115.252 37.675 115.305 37.9415 115.466 38.1546C115.627 38.3678 115.841 38.4744 116.109 38.4744H116.591V39.5402H115.948C115.252 39.5402 114.769 39.327 114.394 38.9007C114.019 38.4744 113.859 37.9948 113.859 37.4086V32.7191H112.68V31.5467H113.859V29.575L115.198 28.9355H115.252V31.5467H116.805V32.7191H115.252Z"/>
<path fill="#0F2E2F" d="M117.877 28.5625V30.1079H119.377V28.5625H117.877ZM119.323 31.5471H117.93V39.5405H119.323V31.5471Z" clip-rule="evenodd" fill-rule="evenodd"/>
<path fill="#0F2E2F" d="M126.984 32.1861C127.466 32.7722 127.68 33.465 127.68 34.3709V39.54H126.287V34.4775C126.287 33.1453 125.698 32.5058 124.573 32.5058C123.93 32.5058 123.394 32.719 122.966 33.1453C122.537 33.5716 122.323 34.3176 122.323 35.2768V39.54H120.93V31.5466H122.323V33.1986C122.43 32.719 122.698 32.2926 123.127 31.9196C123.555 31.5466 124.091 31.3867 124.734 31.3867C125.805 31.3867 126.502 31.6532 126.984 32.1861Z"/>
<path fill="#0F2E2F" d="M136.681 38.9011V31.5471H135.234V33.1458C135.073 32.6129 134.806 32.2399 134.323 31.8669C133.841 31.4939 133.252 31.334 132.502 31.334C131.377 31.334 130.413 31.707 129.77 32.4531C129.073 33.2524 128.752 34.2116 128.752 35.4373C128.752 36.6629 129.073 37.6754 129.77 38.4215C130.466 39.2208 131.377 39.5939 132.502 39.5939C133.252 39.5939 133.841 39.3807 134.323 39.061C134.752 38.6879 135.073 38.3149 135.234 37.782V38.9011C135.234 39.7537 135.073 40.3399 134.645 40.7662C134.216 41.1925 133.681 41.4057 132.984 41.4057C131.538 41.4057 130.788 40.8728 130.627 39.8603H129.234C129.341 40.7129 129.716 41.4057 130.413 41.8853C131.109 42.3649 131.966 42.6314 132.984 42.6314C134.056 42.6314 134.913 42.2583 135.609 41.6189C136.359 40.9261 136.681 40.0735 136.681 38.9011ZM132.823 38.4218C131.966 38.4218 131.323 38.1553 130.894 37.5691C130.412 36.983 130.198 36.2902 130.305 35.5441C130.305 34.6915 130.466 34.052 130.948 33.4658C131.376 32.8797 131.966 32.6132 132.823 32.6132C133.68 32.6132 134.269 32.8797 134.751 33.4658C135.18 34.052 135.394 34.7448 135.394 35.5974C135.394 36.3968 135.18 37.0895 134.805 37.6224C134.43 38.1553 133.734 38.4218 132.823 38.4218Z" clip-rule="evenodd" fill-rule="evenodd"/>
</svg>