<svg xmlns="http://www.w3.org/2000/svg" fill="none" viewBox="0 0 91 56" height="56" width="91">
<path fill="#0F2E2F" d="M23.7681 37.982V41.5982H28.8377V42.8493H23.7681V47.9022H22.2432V36.7266H29.3055V37.9776H23.7681V37.982Z"/>
<path fill="#0F2E2F" d="M31.3649 44.6308H36.4525L37.721 47.9022H39.2954L34.8646 36.7266H32.9528L28.522 47.9022H30.0964L31.3649 44.6308ZM35.9888 43.4103H31.8323L33.8836 38.0568H33.933L35.9888 43.4103Z" clip-rule="evenodd" fill-rule="evenodd"/>
<path fill="#0F2E2F" d="M48.3365 47.089C47.4233 47.7609 46.2807 48.1057 44.9042 48.1057C43.0914 48.1057 41.661 47.5576 40.6218 46.448C39.5782 45.3384 39.0654 43.9591 39.0654 42.3146C39.0654 40.6701 39.5782 39.2952 40.6218 38.1812C41.6655 37.0716 43.0914 36.5234 44.9042 36.5234C47.5223 36.5234 49.2361 37.6817 50.0548 40.0114H48.5299C48.1925 39.2599 47.7607 38.6984 47.1984 38.3227C46.6361 37.9646 45.8849 37.7745 44.9042 37.7745C43.5413 37.7745 42.4797 38.2122 41.7284 39.0742C40.9727 39.9539 40.5859 41.0326 40.5859 42.3146C40.5859 43.5966 40.9727 44.6797 41.7239 45.5373C42.4797 46.4126 43.5368 46.8503 44.8997 46.8503C46.7935 46.8503 48.0126 46.0987 48.5434 44.5957H50.0683C49.8299 45.5859 49.2541 46.417 48.3365 47.089Z"/>
<path fill="#0F2E2F" d="M52.9878 36.7266V47.9022H51.4629V36.7266H52.9878Z"/>
<path fill="#0F2E2F" d="M62.0836 46.6511V47.9022H54.9897V36.7266H56.5147V46.6467H62.0836V46.6511Z"/>
<path fill="#0F2E2F" d="M64.5708 36.7266V47.9022H63.0459V36.7266H64.5708Z"/>
<path fill="#0F2E2F" d="M74.0401 37.9815H70.5269V47.9016H69.002V37.9815H65.4888V36.7305H74.0446V37.9815H74.0401Z"/>
<path fill="#0F2E2F" d="M79.9512 43.3002V47.9022H78.4263V43.3002L74.4453 36.7266H76.2087L79.1775 41.9386L82.1779 36.7266H83.9413L79.9512 43.3002Z"/>
<path fill="#0F2E2F" d="M15.9904 10.1895V18.0716H14.9198V11.2283H14.8974L12.5582 18.076H11.3167L8.96858 11.2283H8.94609V18.076H7.87549V10.1895L9.68381 10.2027L11.942 16.9045L14.1911 10.1895L15.9904 10.1895Z"/>
<path fill="#0F2E2F" d="M20.8203 17.0236V17.2446C20.8203 17.6071 20.8293 17.8856 20.8472 18.0669H21.9313C21.8774 17.7044 21.8414 17.3153 21.8414 16.9086V14.4595C21.8414 14.2518 21.8279 14.0528 21.8054 13.876C21.7829 13.7124 21.7244 13.5135 21.6345 13.2925C21.5355 13.0847 21.4095 12.899 21.2521 12.7531C21.0812 12.6073 20.8562 12.4746 20.5504 12.3774C20.2445 12.2757 19.8936 12.2227 19.4888 12.2227C18.778 12.2227 18.2337 12.4083 17.8514 12.7841C17.4645 13.1731 17.2621 13.6019 17.2396 14.0882H18.2652C18.2877 13.7655 18.4092 13.5224 18.6476 13.3367C18.8725 13.151 19.1694 13.0626 19.5292 13.0626C19.9341 13.0626 20.249 13.1422 20.4874 13.2836C20.7123 13.4384 20.8248 13.6373 20.8248 13.8804C20.8248 14.1147 20.7528 14.2916 20.6088 14.4109C20.4649 14.5303 20.1905 14.632 19.8081 14.6983C19.7667 14.7051 19.7028 14.713 19.6153 14.7239C19.5319 14.7343 19.4271 14.7473 19.2998 14.7646C19.0254 14.7955 18.814 14.8265 18.6431 14.8618C18.4721 14.8928 18.2562 14.9502 18.0088 15.0254C17.7479 15.1138 17.559 15.2111 17.4105 15.3216C17.2621 15.4454 17.1271 15.6001 17.0147 15.8079C16.8977 16.0201 16.8438 16.2499 16.8438 16.5152C16.8438 16.9661 17.0237 17.3551 17.3746 17.6955C17.7209 18.0359 18.2292 18.2039 18.886 18.2039C19.4618 18.2039 19.9026 18.0845 20.2085 17.8414C20.5144 17.5983 20.7168 17.3198 20.8068 17.0236H20.8203ZM20.8428 15.4233C20.8428 16.0864 20.6718 16.5859 20.3344 16.9042C19.9836 17.2313 19.5652 17.3993 19.0749 17.3993C18.715 17.3993 18.4182 17.3242 18.1932 17.1562C17.9683 16.9882 17.8559 16.7804 17.8559 16.5152C17.8559 16.2146 17.9683 16.0068 18.1842 15.8742C18.3957 15.7416 18.7375 15.631 19.2099 15.5559C19.7722 15.4586 20.168 15.3393 20.3929 15.1934C20.6043 15.0519 20.7528 14.8707 20.8203 14.6629H20.8428V15.4233Z" clip-rule="evenodd" fill-rule="evenodd"/>
<path fill="#0F2E2F" d="M28.307 18.0716V10.1895H27.2904V13.5227H27.2769C27.1734 13.1602 26.9485 12.8596 26.6201 12.6076C26.2828 12.3556 25.8419 12.2318 25.3111 12.2318C24.4879 12.2318 23.8312 12.5059 23.3454 13.0585C22.846 13.6244 22.5986 14.3317 22.5986 15.2026C22.5986 16.0734 22.8505 16.794 23.3454 17.3555C23.8312 17.9169 24.4879 18.2042 25.3111 18.2042C25.8419 18.2042 26.2828 18.0849 26.6201 17.8417C26.9485 17.5986 27.1734 17.3024 27.2769 16.9355H27.2904V18.0716H28.307ZM27.3214 15.2028C27.3214 15.8349 27.1775 16.3522 26.8941 16.75C26.6107 17.1567 26.1384 17.3557 25.4681 17.3557C24.8698 17.3557 24.4065 17.1435 24.0916 16.7368C23.7767 16.3301 23.6193 15.8084 23.6193 15.2028C23.6193 14.606 23.7767 14.0976 24.1051 13.6909C24.4335 13.2798 24.8833 13.072 25.4726 13.072C26.0709 13.072 26.5207 13.2842 26.8491 13.6909C27.164 14.0976 27.3214 14.606 27.3214 15.2028Z" clip-rule="evenodd" fill-rule="evenodd"/>
<path fill="#0F2E2F" d="M30.0071 15.4905H34.5864V15.3137C34.5729 14.9246 34.5279 14.5489 34.4379 14.2085C34.3345 13.8681 34.1905 13.5365 33.9971 13.2271C33.7947 12.9265 33.5113 12.6833 33.1514 12.4977C32.7781 12.3208 32.3507 12.2324 31.8649 12.2324C31.0417 12.2324 30.3535 12.5065 29.8227 13.0591C29.2919 13.6205 29.022 14.3278 29.022 15.1899C29.022 16.0829 29.2829 16.8123 29.8137 17.3649C30.3445 17.9307 31.0327 18.2048 31.8919 18.2048C32.5576 18.2048 33.1109 18.0501 33.5743 17.7318C34.0376 17.4224 34.3435 16.9714 34.5009 16.3746H33.5068C33.3134 17.0466 32.7601 17.3781 31.8694 17.3781C31.3386 17.3781 30.9068 17.2102 30.5694 16.8698C30.232 16.5382 30.0431 16.074 30.0071 15.4905ZM33.0704 13.4927C33.3493 13.7889 33.5202 14.1868 33.5652 14.6952H30.0205C30.088 14.2 30.2904 13.7889 30.6188 13.4927C30.9472 13.1921 31.3655 13.0507 31.8738 13.0507C32.3821 13.0507 32.778 13.1965 33.0704 13.4927Z" clip-rule="evenodd" fill-rule="evenodd"/>
<path fill="#0F2E2F" d="M37.1636 10.2324V11.3376H38.6292V10.2324H37.1636ZM38.5873 12.3631H37.2129V18.0702H38.5873V12.3631Z" clip-rule="evenodd" fill-rule="evenodd"/>
<path fill="#0F2E2F" d="M43.7029 12.8292C44.0403 13.2271 44.2112 13.7443 44.2112 14.3765V18.0766H43.1946V14.4782C43.1946 13.541 42.7898 13.0768 41.9621 13.0768C41.4898 13.0768 41.1029 13.2315 40.797 13.541C40.4911 13.8592 40.3472 14.3588 40.3472 15.0528V18.0766H39.3306V12.365H40.3472V13.5233H40.3607C40.4417 13.1696 40.6441 12.8602 40.9455 12.6082C41.2468 12.3562 41.6337 12.2324 42.097 12.2324C42.8213 12.2324 43.3521 12.4314 43.7029 12.8292Z"/>
<path fill="#0F2E2F" d="M50.7124 17.0236V17.2446C50.7124 17.6071 50.7213 17.8856 50.7483 18.0669H51.8324C51.7785 17.7044 51.7425 17.3153 51.7425 16.9086V14.4595C51.7425 14.2518 51.729 14.0528 51.7065 13.876C51.684 13.7124 51.6255 13.5135 51.5355 13.2925C51.4366 13.0847 51.3106 12.899 51.1532 12.7531C50.9822 12.6073 50.7573 12.4746 50.4514 12.3774C50.1456 12.2757 49.7947 12.2227 49.3898 12.2227C48.6791 12.2227 48.1348 12.4083 47.7525 12.7841C47.3656 13.1731 47.1632 13.6019 47.1407 14.0882H48.1573C48.1798 13.7655 48.3013 13.5224 48.5397 13.3367C48.7646 13.151 49.0615 13.0626 49.4213 13.0626C49.8262 13.0626 50.1411 13.1422 50.3795 13.2836C50.6044 13.4384 50.7168 13.6373 50.7168 13.8804C50.7168 14.1147 50.6449 14.2916 50.5009 14.4109C50.357 14.5303 50.0826 14.632 49.7002 14.6983C49.6588 14.7051 49.5949 14.713 49.5074 14.7239C49.424 14.7343 49.3192 14.7473 49.1919 14.7646C48.9175 14.7955 48.7061 14.8265 48.5352 14.8618C48.3642 14.8928 48.1483 14.9502 47.9009 15.0254C47.64 15.1138 47.4511 15.2111 47.3026 15.3216C47.1542 15.4454 47.0192 15.6001 46.9068 15.8079C46.7898 16.0201 46.7358 16.2499 46.7358 16.5152C46.7358 16.9661 46.9158 17.3551 47.2666 17.6955C47.613 18.0359 48.1213 18.2039 48.7781 18.2039C49.3539 18.2039 49.7947 18.0845 50.1006 17.8414C50.4065 17.5983 50.6089 17.3198 50.6989 17.0236H50.7124ZM50.7348 15.4233C50.7348 16.0864 50.5639 16.5859 50.2265 16.9042C49.8757 17.2313 49.4573 17.3993 48.967 17.3993C48.6071 17.3993 48.3103 17.3242 48.0853 17.1562C47.8604 16.9882 47.748 16.7804 47.748 16.5152C47.748 16.2146 47.8604 16.0068 48.0763 15.8742C48.2878 15.7416 48.6296 15.631 49.102 15.5559C49.6642 15.4586 50.0601 15.3393 50.285 15.1934C50.4964 15.0519 50.6449 14.8707 50.7123 14.6629H50.7348V15.4233Z" clip-rule="evenodd" fill-rule="evenodd"/>
<path fill="#0F2E2F" d="M64.3919 17.899C64.3919 16.2545 64.3919 14.6056 64.3919 12.9611C64.3919 12.8726 64.3919 12.7842 64.3919 12.6958C64.3874 12.5322 64.3829 12.5234 64.2255 12.5234C63.4068 12.519 62.5881 12.5234 61.7694 12.519C61.657 12.519 61.603 12.5543 61.6075 12.6693C61.612 13.0318 61.6075 13.3987 61.6075 13.7656C61.6075 13.9204 61.6165 13.9204 61.7874 13.9248C61.9988 13.9292 62.2102 13.9248 62.4262 13.9248C62.6331 13.9292 62.6466 13.9292 62.6421 14.1149C62.6286 14.7161 62.6196 15.3173 62.5791 15.9141C62.5611 16.2103 62.4487 16.4755 62.2013 16.6921C61.9269 16.9353 61.3916 16.8999 61.1621 16.7231C60.9102 16.533 60.7978 16.2722 60.7663 15.9848C60.7123 15.4853 60.6583 14.9857 60.6583 14.4862C60.6493 12.8019 60.6268 11.1176 60.7078 9.43331C60.7078 9.40237 60.7078 9.37584 60.7123 9.3449C60.7483 9.07523 60.8293 8.82767 60.9957 8.60664C61.2566 8.26624 61.8369 8.22645 62.1833 8.49612C62.4756 8.72158 62.5701 9.01334 62.5881 9.34932C62.6106 9.71182 62.6196 10.0787 62.6286 10.4412C62.6286 10.5739 62.6826 10.6092 62.8085 10.6092C63.2853 10.6048 63.7577 10.6092 64.2345 10.6048C64.3874 10.6048 64.3964 10.596 64.3964 10.428C64.3964 10.092 64.4099 9.75603 64.3874 9.42447C64.3559 8.99566 64.2885 8.57127 64.095 8.16899C63.7847 7.52356 63.2763 7.10359 62.6016 6.87813C62.0978 6.71014 61.5625 6.71457 61.0452 6.81182C59.9206 7.0196 59.1919 7.94353 59.0254 8.94703C58.976 9.2388 58.9625 9.53499 58.958 9.83118C58.949 10.7595 58.9535 11.6835 58.9535 12.6118C58.94 12.6118 58.931 12.6118 58.9175 12.6118C58.949 13.7656 58.958 14.915 59.0119 16.0688C59.0434 16.7054 59.2414 17.2978 59.7002 17.7885C60.0016 18.1156 60.3659 18.3322 60.8023 18.4074C61.1666 18.4737 61.5445 18.4693 61.9134 18.4162C62.0888 18.3897 62.2777 18.3367 62.4172 18.2394C62.6196 18.1024 62.8355 17.9653 62.9615 17.7354C63.0109 17.6426 63.0964 17.563 63.1684 17.4835C63.2044 17.4437 63.2359 17.4481 63.2539 17.5011C63.3033 17.6426 63.3438 17.7841 63.3978 17.9211C63.5462 18.3057 63.5462 18.3057 63.9781 18.3057C64.3919 18.2969 64.3919 18.2969 64.3919 17.899Z"/>
<path fill="#0F2E2F" d="M71.1485 17.9262C71.1496 17.9406 71.1508 17.9549 71.153 17.9704C71.1813 18.1308 71.1959 18.2125 71.1617 18.2552C71.1252 18.3008 71.0331 18.3018 70.8426 18.3064C70.7047 18.3064 70.5667 18.3059 70.4288 18.3054C70.1529 18.3044 69.877 18.3034 69.6011 18.3064C69.5111 18.3064 69.4571 18.2887 69.4391 18.1826C69.3813 17.8061 69.3183 17.4312 69.2555 17.0569C69.2158 16.8205 69.1761 16.5842 69.1378 16.348C69.1153 16.2154 69.0928 16.0783 69.0793 15.9413C69.0703 15.8175 69.0028 15.7733 68.8814 15.7733H68.0942C68.0132 15.7733 67.9322 15.7728 67.8512 15.7723C67.6893 15.7713 67.5274 15.7704 67.3654 15.7733C67.172 15.7777 67.1585 15.7954 67.1315 15.9678C67.0843 16.2485 67.0359 16.5293 66.9876 16.81C66.9392 17.0907 66.8909 17.3714 66.8436 17.6521C66.8166 17.8157 66.7896 17.9792 66.7761 18.1472C66.7672 18.2578 66.7357 18.3064 66.6142 18.3064C66.1329 18.302 65.6471 18.302 65.1613 18.3064C65.0488 18.3064 65.0128 18.2622 65.0398 18.1605C65.1746 17.6506 65.2483 17.1295 65.3219 16.6094C65.3613 16.3313 65.4006 16.0534 65.4491 15.7777C65.4816 15.582 65.5175 15.3875 65.5534 15.1936C65.5873 15.0107 65.621 14.8284 65.6516 14.646C65.6987 14.3588 65.7453 14.071 65.7919 13.7831C65.8788 13.2468 65.9657 12.7099 66.0564 12.1748C66.0947 11.9472 66.1351 11.7195 66.1756 11.4918C66.2161 11.2642 66.2566 11.0365 66.2948 10.8088C66.3376 10.5568 66.3769 10.3049 66.4163 10.0529C66.4556 9.8009 66.495 9.54892 66.5377 9.29694C66.558 9.17095 66.5838 9.04606 66.6097 8.92118C66.6356 8.79629 66.6614 8.67141 66.6817 8.54542C66.726 8.29723 66.7626 8.04651 66.7993 7.79517C66.811 7.71521 66.8227 7.63519 66.8346 7.55517C66.8375 7.53868 66.8404 7.52227 66.8433 7.50591C66.8628 7.39506 66.8819 7.2867 66.8976 7.17499C66.9197 7.04043 66.9309 6.97193 66.9713 6.93706C67.0131 6.90091 67.0861 6.90091 67.235 6.90091H68.0852C68.164 6.90091 68.2426 6.90118 68.321 6.90146C68.5558 6.90229 68.7893 6.90311 69.0253 6.89648C69.1513 6.89648 69.1962 6.94069 69.2187 7.06005C69.2615 7.29656 69.3087 7.53196 69.3559 7.76736C69.4032 8.00277 69.4504 8.23817 69.4931 8.47468C69.6101 9.12005 69.7225 9.76984 69.835 10.4196L69.835 10.4198C69.8543 10.5321 69.8736 10.6444 69.893 10.7568C70.0267 11.5339 70.1608 12.3136 70.2983 13.0899C70.3431 13.3467 70.3948 13.6021 70.4465 13.8577C70.4883 14.0641 70.53 14.2706 70.5682 14.478C70.611 14.7179 70.6481 14.9577 70.6852 15.1967C70.7143 15.3851 70.7434 15.573 70.7751 15.76C70.8066 15.9391 70.8404 16.1181 70.8741 16.2972C70.9078 16.4762 70.9416 16.6552 70.9731 16.8343C71.0361 17.1835 71.09 17.5327 71.144 17.882L71.144 17.882C71.1463 17.8975 71.1474 17.9118 71.1485 17.9262ZM68.2609 14.2142C68.3749 14.2152 68.4889 14.2161 68.6028 14.2132C68.7468 14.2088 68.7917 14.1646 68.7738 14.0408C68.743 13.8203 68.7081 13.6018 68.6733 13.3841C68.6571 13.2831 68.641 13.1823 68.6253 13.0815C68.5826 12.8096 68.5387 12.5388 68.4949 12.2681C68.451 11.9973 68.4071 11.7265 68.3644 11.4547C68.3217 11.1938 68.2812 10.9319 68.2407 10.67C68.2002 10.408 68.1597 10.1461 68.117 9.8853C68.117 9.86762 68.105 9.85386 68.093 9.84011C68.087 9.83323 68.081 9.82636 68.0765 9.81899C68.0696 9.82713 68.061 9.83526 68.0523 9.84353C68.0326 9.86221 68.0122 9.88153 68.009 9.90298C67.9994 9.98256 67.9922 10.0621 67.9851 10.1417C67.9755 10.2478 67.966 10.3539 67.9506 10.46C67.9011 10.8269 67.8381 11.1894 67.7706 11.5563C67.6631 12.1518 67.5863 12.7495 67.5094 13.3479C67.4801 13.5759 67.4508 13.8039 67.4198 14.0319C67.4018 14.1734 67.4243 14.2088 67.5772 14.2132C67.6912 14.2161 67.8051 14.2152 67.9191 14.2142C67.9761 14.2137 68.033 14.2132 68.09 14.2132C68.147 14.2132 68.204 14.2137 68.2609 14.2142Z" clip-rule="evenodd" fill-rule="evenodd"/>
<path fill="#0F2E2F" d="M58.5579 8.34225C58.5624 7.96649 58.5579 7.59515 58.5579 7.21938C58.5579 6.87015 58.5939 6.90109 58.234 6.90109C56.6281 6.90109 55.2471 6.90109 53.6412 6.90109C53.5917 6.90109 53.5423 6.90109 53.4883 6.90109C53.3263 6.90993 53.3173 6.90993 53.3173 7.0735C53.3128 7.49789 53.3128 7.92228 53.3173 8.34667C53.3173 8.5235 53.3263 8.52792 53.5063 8.52792H54.8693C55.1571 8.52792 55.1571 8.53234 55.1571 8.80201V8.83295V17.9397V18.1165C55.1616 18.2977 55.1616 18.3021 55.3416 18.3021C55.7959 18.3066 56.2502 18.3066 56.7046 18.3021C56.8935 18.3021 56.8935 18.2977 56.9025 18.0988C56.9025 18.0502 56.9025 18.0015 56.9025 17.9529C56.9025 16.4454 56.9025 14.938 56.9025 13.4305C56.9025 11.9009 56.9025 10.3758 56.9025 8.84621C56.9025 8.78874 56.9025 8.72685 56.9025 8.66938C56.898 8.56771 56.9565 8.52792 57.0509 8.53234H57.2624H58.3689C58.5534 8.5235 58.5579 8.51908 58.5579 8.34225Z"/>
<path fill="#0F2E2F" d="M78.2288 13.3638L79.2139 15.3929H80.4195L79.3264 13.1516C80.0911 12.8333 80.4195 12.2984 80.4195 11.5513C80.4195 10.4815 79.6503 9.73438 78.5572 9.73438H75.9302V15.3929H77.1357V13.3638H78.2288ZM77.1312 12.294V10.6937H78.4447C78.7731 10.6937 79.3219 10.7998 79.3219 11.5469C79.3219 12.294 78.6652 12.294 78.4447 12.294H77.1312Z" clip-rule="evenodd" fill-rule="evenodd"/>
<path fill="#0F2E2F" d="M14.8423 31.6644C14.7253 31.4434 14.6444 31.2444 14.5904 31.0765C14.5399 30.9507 14.4818 30.773 14.4068 30.5433C14.3816 30.4661 14.3544 30.383 14.325 30.294C14.1271 29.6574 13.9246 29.1755 13.6997 28.8351C13.4748 28.5124 13.1689 28.2914 12.7956 28.1853C13.3938 28.0438 13.8617 27.7432 14.2215 27.2879C14.5769 26.8326 14.7523 26.3242 14.7523 25.7627C14.7523 24.9935 14.4689 24.3569 13.9246 23.8618C13.3668 23.3667 12.5661 23.1191 11.527 23.1191H7.87891V32.4159H9.14293V28.6141H11.0997C11.6215 28.6141 12.0219 28.7423 12.2873 29.0031C12.5392 29.2772 12.7686 29.6662 12.9665 30.1879C13.0187 30.327 13.0739 30.5117 13.145 30.7494C13.1598 30.7986 13.1752 30.8502 13.1914 30.904C13.2859 31.2312 13.3758 31.5053 13.4703 31.7528C13.5648 32.0004 13.6682 32.2214 13.8032 32.4159H15.2426V32.2877C15.0807 32.0932 14.9503 31.8854 14.8423 31.6644ZM12.967 27.0886C12.6341 27.4157 12.1258 27.5705 11.4736 27.5705H9.14793V24.1577H11.3971C12.7826 24.1577 13.4753 24.6882 13.4753 25.758C13.4753 26.3194 13.2999 26.7615 12.967 27.0886Z" clip-rule="evenodd" fill-rule="evenodd"/>
<path fill="#0F2E2F" d="M13.7587 32.495H15.3106V32.2607L15.2926 32.2386C15.1397 32.0485 15.0047 31.8407 14.9013 31.6241C14.7933 31.4252 14.7124 31.2351 14.6539 31.0494V31.045C14.6134 30.9389 14.5639 30.793 14.5054 30.6118C14.4864 30.5504 14.4641 30.4842 14.4406 30.4142L14.4406 30.4142L14.4405 30.4141C14.4251 30.3681 14.409 30.3204 14.393 30.2714C14.1816 29.595 13.9836 29.122 13.7587 28.7904C13.5698 28.5163 13.3314 28.313 13.0435 28.1892C13.5428 28.0256 13.9476 27.7427 14.276 27.3272C14.6404 26.8674 14.8248 26.3369 14.8248 25.7578C14.8248 24.9709 14.5414 24.3122 13.9746 23.7994C13.4033 23.2955 12.5757 23.0391 11.523 23.0391H7.79395V32.4906H9.21541V28.6888H11.0957C11.595 28.6888 11.9729 28.8125 12.2203 29.0557C12.4677 29.3253 12.6926 29.7144 12.886 30.2183C12.9334 30.3385 12.9807 30.496 13.0401 30.6939L13.066 30.7798L13.111 30.9256C13.1964 31.2218 13.2909 31.5003 13.3943 31.7788C13.4978 32.0485 13.6058 32.2695 13.7362 32.4596L13.7587 32.495ZM15.167 32.3402H13.8489C13.7365 32.1678 13.6375 31.9688 13.5521 31.7301C13.4486 31.456 13.3586 31.182 13.2732 30.8902L13.2282 30.7443L13.1944 30.6316C13.1385 30.4449 13.0927 30.2917 13.0437 30.1696C12.8413 29.6435 12.6164 29.2457 12.3465 28.9583C12.0676 28.6798 11.6493 28.5428 11.105 28.5428H9.06724V32.3446H7.96065V23.1981H11.5323C12.5444 23.1981 13.3361 23.4413 13.8759 23.9187C14.4067 24.4006 14.6766 25.0195 14.6766 25.7621C14.6766 26.3059 14.5012 26.8054 14.1593 27.2387C13.804 27.6852 13.3541 27.9725 12.7783 28.1095L12.4905 28.1803L12.7783 28.2598C13.1292 28.3571 13.4216 28.5693 13.6375 28.8788C13.8489 29.197 14.0469 29.6568 14.2538 30.3199L14.2864 30.4205L14.2865 30.4205L14.2865 30.4206C14.3142 30.5063 14.3402 30.5868 14.3663 30.6603C14.3845 30.714 14.4012 30.7644 14.4168 30.8116L14.417 30.812L14.417 30.812L14.417 30.8121C14.4553 30.9277 14.4873 31.0239 14.5192 31.1024C14.5822 31.2925 14.6676 31.4958 14.7756 31.6948C14.8791 31.9114 15.0095 32.1191 15.167 32.3137V32.3402ZM11.4741 27.6502H9.06297V24.0827H11.3931C12.8236 24.0827 13.5478 24.6485 13.5478 25.7626C13.5478 26.3373 13.3679 26.8014 13.017 27.1463C12.6796 27.4778 12.1578 27.6502 11.4741 27.6502ZM11.4731 27.4956H9.21947V24.2375H11.3922C12.7372 24.2375 13.3894 24.737 13.3894 25.7626C13.3894 26.2931 13.2275 26.7219 12.9081 27.0358C12.5977 27.3408 12.1164 27.4956 11.4731 27.4956Z" clip-rule="evenodd" fill-rule="evenodd"/>
<path fill="#0F2E2F" d="M22.4357 31.3771V32.4204H16.417V23.1191H22.3953V24.1624H17.681V27.1729H22.1164V28.2162H17.681V31.3815H22.4357V31.3771Z"/>
<path fill="#0F2E2F" d="M16.3369 32.495H22.5131V31.3014H17.7584V28.2909H22.1937V27.0929H17.7584V24.2371H22.4726V23.0391H16.3369V32.495ZM22.3564 32.3405H16.4951V23.1896H22.3159V24.0782H17.6017V27.2434H22.037V28.132H17.6017V31.452H22.3564V32.3405Z" clip-rule="evenodd" fill-rule="evenodd"/>
<path fill="#0F2E2F" d="M32.3863 27.6772L32.2648 32.4207H31.4641L31.3067 30.6347C31.0818 31.2713 30.6949 31.7532 30.1461 32.1068C29.6018 32.4605 28.9091 32.6417 28.0544 32.6417C26.5745 32.6417 25.4319 32.1731 24.6177 31.2227C23.8035 30.2722 23.3896 29.1272 23.3896 27.7701C23.3896 26.8992 23.5786 26.1035 23.9339 25.374C24.2938 24.6579 24.8381 24.0567 25.5848 23.5881C26.3181 23.1327 27.1817 22.8984 28.1804 22.8984C29.3139 22.8984 30.2181 23.1725 30.9108 23.734C31.6036 24.2954 32.0714 25.0115 32.2963 25.8559H31.0323C30.6454 24.5783 29.6873 23.9417 28.1804 23.9417C27.0738 23.9417 26.2101 24.3175 25.5848 25.0734C24.9596 25.8294 24.6537 26.7268 24.6537 27.7701C24.6537 28.8134 24.9596 29.7108 25.5578 30.4667C26.1561 31.2227 26.9838 31.5984 28.0499 31.5984C28.5942 31.5984 29.1025 31.5056 29.5703 31.3111C30.0382 31.1166 30.4205 30.7894 30.7444 30.3341C31.0638 29.8788 31.2257 29.3306 31.2257 28.6675L28.2568 28.694V27.6772H32.3863Z"/>
<path fill="#0F2E2F" d="M24.5644 31.2727C25.3831 32.232 26.5616 32.7183 28.0596 32.7183C28.9143 32.7183 29.6295 32.5371 30.1963 32.1746C30.6731 31.8695 31.024 31.4717 31.2624 30.9677L31.3973 32.5017H32.3465L32.4679 27.6831V27.6035H28.181V28.775L31.1499 28.7485C31.1409 29.3586 30.988 29.867 30.6866 30.2958C30.3717 30.7467 29.9984 31.0561 29.5485 31.2462C29.1032 31.4319 28.6039 31.5247 28.0596 31.5247C27.0115 31.5247 26.2198 31.1622 25.6305 30.4195C25.0412 29.6769 24.7398 28.7883 24.7398 27.7715C24.7398 26.7459 25.0457 25.8574 25.653 25.1235C26.2603 24.3897 27.1149 24.0183 28.19 24.0183C29.661 24.0183 30.5921 24.6461 30.9655 25.8795L30.9835 25.9325H32.4095L32.3825 25.8352C32.1486 24.9732 31.6762 24.2438 30.97 23.6735C30.2638 23.0988 29.3551 22.8203 28.19 22.8203C27.1869 22.8203 26.3007 23.059 25.5495 23.5232C24.8073 23.9918 24.2405 24.6063 23.8717 25.3401C23.5028 26.0872 23.3184 26.9051 23.3184 27.7715C23.3184 29.1287 23.7367 30.3046 24.5644 31.2727ZM25.635 23.6514C26.3592 23.2049 27.2184 22.975 28.19 22.975C29.3146 22.975 30.1918 23.2403 30.862 23.7885C31.5143 24.3145 31.9641 24.982 32.1935 25.7734H31.0914C30.6821 24.5046 29.706 23.8592 28.181 23.8592C27.0565 23.8592 26.1613 24.2526 25.5225 25.0218C24.8928 25.7822 24.5734 26.7061 24.5734 27.7671C24.5734 28.8192 24.8838 29.7432 25.4955 30.5124C26.1118 31.286 26.971 31.675 28.0506 31.675C28.6129 31.675 29.1347 31.5778 29.598 31.3833C30.0748 31.1843 30.4707 30.8528 30.8036 30.3798C31.1364 29.9067 31.2984 29.3453 31.2984 28.6689V28.5894L28.3295 28.6159V27.7538H32.297L32.18 32.3426H31.5323L31.3479 30.2692L31.2264 30.6096C31.006 31.2241 30.6371 31.6927 30.0973 32.042C29.562 32.3868 28.8738 32.5636 28.0506 32.5636C26.6021 32.5636 25.4641 32.095 24.6769 31.1711C23.8762 30.2339 23.4713 29.0889 23.4713 27.7671C23.4713 26.9272 23.6557 26.1314 24.0111 25.4064C24.3665 24.6947 24.9153 24.1067 25.635 23.6514Z" clip-rule="evenodd" fill-rule="evenodd"/>
<path fill="#0F2E2F" d="M35.41 23.1191V32.4204H34.146V23.1191L35.41 23.1191Z"/>
<path fill="#0F2E2F" d="M34.0693 32.495H35.5349V23.0391H34.0693V32.495ZM35.3719 32.3403H34.2309V23.1939H35.3719V32.3403Z" clip-rule="evenodd" fill-rule="evenodd"/>
<path fill="#0F2E2F" d="M41.8462 24.3942C41.5133 24.0936 41.0185 23.9389 40.3798 23.9389C39.8085 23.9389 39.3272 24.0671 38.9403 24.3279C38.5535 24.602 38.3555 24.991 38.3555 25.5259C38.3555 25.9547 38.5579 26.2951 38.9403 26.5294C39.3272 26.777 39.885 26.9847 40.6317 27.1792C40.6991 27.1925 40.8566 27.2323 41.113 27.2986C41.3649 27.3649 41.5403 27.418 41.6213 27.4268C41.6888 27.4533 41.8462 27.5064 42.0756 27.5683C42.3005 27.6346 42.4625 27.6965 42.557 27.7363C42.6379 27.776 42.7684 27.8424 42.9573 27.9308C43.1327 28.0236 43.2632 28.112 43.3442 28.1916C43.4116 28.2712 43.5196 28.3728 43.6365 28.4922C43.758 28.6204 43.8345 28.753 43.8885 28.8812C43.9289 29.0094 43.9829 29.1686 44.0234 29.3366C44.0639 29.5045 44.0774 29.6902 44.0774 29.8847C44.0774 30.4859 43.8885 30.9899 43.5331 31.4231C43.1732 31.852 42.7189 32.1658 42.2016 32.3471C41.6843 32.5416 41.1085 32.6344 40.5102 32.6344C39.4036 32.6344 38.513 32.3603 37.8337 31.8254C37.1545 31.2905 36.8081 30.5081 36.8081 29.4692H38.0721C38.0856 30.1588 38.3105 30.6937 38.7514 31.0474C39.1922 31.4099 39.777 31.5956 40.5102 31.5956C41.122 31.5956 41.6573 31.4541 42.1206 31.1535C42.5884 30.8661 42.8134 30.4638 42.8134 29.9289C42.8134 29.8096 42.7999 29.7079 42.7729 29.6018C42.7459 29.509 42.7189 29.4206 42.6919 29.341C42.6514 29.2614 42.5974 29.1863 42.521 29.1067C42.44 29.0404 42.3725 28.9785 42.3185 28.9254C42.2646 28.8856 42.1836 28.8326 42.0666 28.7707C41.9452 28.7177 41.8552 28.6779 41.7877 28.6513C41.7203 28.6248 41.6033 28.585 41.4549 28.532C41.3064 28.4922 41.203 28.4524 41.1355 28.4392C41.068 28.4259 40.9376 28.3861 40.7621 28.3331C40.5867 28.2933 40.4697 28.2535 40.4023 28.2402C39.9884 28.1209 39.669 28.0324 39.4441 27.9661C39.2192 27.8998 38.9358 27.7981 38.5939 27.639C38.2476 27.4975 37.9822 27.3384 37.8067 27.1704C37.6313 27.0024 37.4739 26.7946 37.3254 26.5206C37.177 26.2465 37.114 25.9459 37.1005 25.6099C37.087 24.7611 37.3929 24.0847 38.0451 23.6029C38.6839 23.121 39.4711 22.8867 40.3888 22.8867C41.3739 22.8867 42.1611 23.1343 42.7594 23.6294C43.3442 24.1245 43.6635 24.8407 43.7175 25.7779H42.4535C42.377 25.1634 42.1746 24.6948 41.8462 24.3942Z"/>
<path fill="#0F2E2F" d="M37.77 31.8956C38.4672 32.4393 39.3804 32.7178 40.496 32.7178C41.1257 32.7178 41.7015 32.6206 42.2053 32.4305C42.7451 32.2404 43.204 31.9221 43.5728 31.48C43.9462 31.0291 44.1351 30.4986 44.1351 29.893C44.1351 29.6675 44.1171 29.4863 44.0811 29.3271C44.0465 29.1911 44.0078 29.0673 43.9728 28.9558L43.9687 28.9425L43.9417 28.8585C43.8832 28.7126 43.7932 28.5756 43.6718 28.443L43.6718 28.4429C43.5638 28.3368 43.4514 28.2263 43.3794 28.1424C43.2939 28.0584 43.1545 27.9611 42.9745 27.8683L42.5697 27.6693C42.4662 27.6251 42.3043 27.5632 42.0794 27.4969C41.8365 27.4262 41.688 27.3776 41.6161 27.351C41.5711 27.3422 41.4856 27.3201 41.3731 27.2892C41.3053 27.2735 41.234 27.2543 41.1497 27.2317C41.1389 27.2288 41.1279 27.2258 41.1167 27.2228C40.8693 27.161 40.7029 27.1212 40.6354 27.1079C39.8662 26.909 39.3354 26.7056 38.9665 26.4669C38.6022 26.2459 38.4178 25.932 38.4178 25.5297C38.4178 25.0302 38.5977 24.6544 38.971 24.3936C39.3444 24.146 39.8122 24.0178 40.3655 24.0178C40.9818 24.0178 41.4586 24.1681 41.778 24.4555C42.0974 24.7384 42.2908 25.1937 42.3538 25.7994L42.3628 25.8701H43.7842L43.7797 25.7905C43.7258 24.8356 43.3974 24.093 42.7946 23.5846C42.1873 23.0806 41.3686 22.8242 40.3745 22.8242C39.4299 22.8242 38.6247 23.0718 37.9814 23.5581C37.3202 24.0443 36.9918 24.7428 37.0053 25.627C37.0188 25.9983 37.0952 26.3033 37.2392 26.573C37.3831 26.8427 37.5451 27.0593 37.734 27.2449C37.9094 27.4174 38.1838 27.5809 38.5437 27.7312C38.8721 27.8815 39.1645 27.992 39.4074 28.0628C39.5254 28.0969 39.6673 28.1369 39.8343 28.1839C39.9917 28.2283 40.1715 28.2789 40.3745 28.3369C40.4015 28.3413 40.442 28.3501 40.487 28.3634C40.55 28.3811 40.6309 28.4032 40.7254 28.4253C40.7579 28.4347 40.7882 28.4436 40.8165 28.4518C40.9604 28.4938 41.0514 28.5203 41.1077 28.5314C41.1392 28.5358 41.1842 28.5491 41.2382 28.5667C41.2877 28.5844 41.3506 28.6021 41.4136 28.6198L41.4136 28.6198L41.5846 28.6773C41.6431 28.6964 41.6948 28.7156 41.731 28.729C41.7365 28.7311 41.7417 28.733 41.7465 28.7347C41.7999 28.7557 41.8674 28.785 41.9489 28.8204C41.9704 28.8298 41.9929 28.8395 42.0164 28.8497C42.1154 28.9071 42.1963 28.9558 42.2503 28.9956L42.2683 29.0088C42.3223 29.0619 42.3853 29.1193 42.4527 29.1768C42.5157 29.2387 42.5697 29.3094 42.6057 29.3802C42.6327 29.4465 42.6552 29.526 42.6777 29.6056L42.6867 29.6321C42.7091 29.7294 42.7226 29.8267 42.7226 29.9372C42.7226 30.4456 42.5067 30.8257 42.0659 31.0954C41.6161 31.3827 41.0987 31.5242 40.496 31.5242C39.7852 31.5242 39.2095 31.3474 38.7866 30.9937C38.3638 30.6622 38.1479 30.1494 38.1344 29.4774V29.4023H36.7129V29.4774C36.7129 30.5295 37.0683 31.343 37.77 31.8956ZM36.8746 29.5574C36.8746 29.5559 36.8745 29.5545 36.8745 29.553V29.5574H36.8746ZM37.8686 31.7722C37.2263 31.269 36.8935 30.5234 36.8746 29.5574H37.9991C38.0306 30.2382 38.2645 30.7598 38.7053 31.1135C39.1551 31.4893 39.7669 31.6793 40.5136 31.6793C41.1524 31.6793 41.6922 31.529 42.169 31.224C42.6593 30.9234 42.8977 30.499 42.8977 29.9332C42.8977 29.8094 42.8842 29.6989 42.8528 29.5839L42.8438 29.553C42.8213 29.469 42.7943 29.3894 42.7673 29.3098C42.7178 29.2126 42.6593 29.133 42.5739 29.049C42.5019 28.9915 42.4434 28.9341 42.3939 28.8854L42.3714 28.8633C42.304 28.8147 42.214 28.7617 42.1015 28.6998C41.9801 28.6467 41.8856 28.6069 41.8181 28.5804C41.803 28.5754 41.7859 28.5692 41.7667 28.5622C41.7346 28.5506 41.6967 28.5368 41.6517 28.5229L41.4763 28.4611C41.439 28.4513 41.4046 28.4402 41.3728 28.43C41.347 28.4217 41.323 28.414 41.3008 28.408C41.2379 28.3903 41.1884 28.3771 41.1524 28.3682C41.0977 28.3567 40.982 28.3219 40.8465 28.2811C40.8259 28.2749 40.8049 28.2685 40.7835 28.2621C40.6891 28.24 40.6081 28.2179 40.5451 28.2002C40.5181 28.1936 40.4945 28.187 40.4748 28.1814C40.4552 28.1759 40.4394 28.1715 40.4282 28.1693C40.2342 28.1134 40.0611 28.0642 39.9086 28.021C39.7358 27.9719 39.5895 27.9304 39.47 27.8952C39.2316 27.8289 38.9482 27.7184 38.6243 27.5725C38.2825 27.431 38.0261 27.2807 37.8641 27.1216C37.6842 26.9492 37.5313 26.7414 37.3963 26.4894C37.2659 26.2419 37.1939 25.9633 37.1804 25.6141C37.1669 24.7786 37.4728 24.1287 38.0935 23.669C38.7098 23.2048 39.479 22.9705 40.3877 22.9705C41.3593 22.9705 42.1195 23.2092 42.7088 23.6955C43.2576 24.1597 43.568 24.8405 43.6355 25.7114H42.5244C42.4479 25.0969 42.241 24.6371 41.9081 24.3365C41.5527 24.0182 41.0444 23.8591 40.3877 23.8591C39.8029 23.8591 39.3036 23.9961 38.9032 24.2658C38.4849 24.5576 38.2825 24.9731 38.2825 25.5257C38.2825 25.9766 38.4984 26.3435 38.9032 26.5911C39.2856 26.8386 39.8299 27.0464 40.6216 27.2542C40.6891 27.2675 40.86 27.3072 41.0984 27.3691C41.1527 27.3818 41.2039 27.396 41.2514 27.4091C41.2866 27.4188 41.3197 27.4279 41.3503 27.4354C41.4718 27.4708 41.5572 27.4929 41.5932 27.4973C41.6697 27.5283 41.8406 27.5813 42.0521 27.6432C42.268 27.7051 42.4254 27.767 42.5199 27.8068L42.9157 28.0013C43.0777 28.0853 43.2081 28.1737 43.2801 28.2444C43.3376 28.3116 43.4239 28.3957 43.5113 28.4809C43.5333 28.5023 43.5553 28.5238 43.577 28.5451C43.6804 28.6644 43.7614 28.7838 43.8109 28.9076L43.8334 28.9871C43.8694 29.0976 43.9099 29.2258 43.9413 29.3585C43.9728 29.5088 43.9908 29.6768 43.9908 29.889C43.9908 30.4681 43.8154 30.9543 43.46 31.3787C43.1092 31.7987 42.6728 32.0993 42.16 32.2806C41.6607 32.4707 41.1029 32.5635 40.4956 32.5635C39.4205 32.5635 38.5344 32.2982 37.8686 31.7722Z" clip-rule="evenodd" fill-rule="evenodd"/>
<path fill="#0F2E2F" d="M51.3834 24.1585H48.4685V32.4164H47.2045V24.1585H44.2896V23.1152H51.3834V24.1585Z"/>
<path fill="#0F2E2F" d="M47.1229 32.495H48.5444H48.5489V24.2371H51.4638V23.0391H44.208V24.2371H47.1229V32.495ZM48.3869 32.3403H47.2804H47.2759V24.0824H44.3609V23.1938H51.3018V24.0824H48.3869V32.3403Z" clip-rule="evenodd" fill-rule="evenodd"/>
<path fill="#0F2E2F" d="M58.4143 31.3771V32.4204H52.3955V23.1191H58.3738V24.1624H53.6595V27.1729H58.0949V28.2162H53.6595V31.3815H58.4143V31.3771Z"/>
<path fill="#0F2E2F" d="M52.3188 32.495H58.495H58.4995V31.3014H53.7448V28.2909H58.1802V27.0929H53.7448V24.2371H58.459V23.0391H52.3188V32.495ZM58.3384 32.3405H52.477V23.1896H58.2979V24.0782H53.5836V27.2434H58.019V28.132H53.5836V31.452H58.3384V32.3405Z" clip-rule="evenodd" fill-rule="evenodd"/>
<path fill="#0F2E2F" d="M66.8213 31.6644C66.7043 31.4434 66.6234 31.2444 66.5694 31.0765C66.5189 30.9507 66.4608 30.773 66.3858 30.5433C66.3606 30.4661 66.3334 30.383 66.304 30.294C66.1061 29.6574 65.9036 29.1755 65.6787 28.8351C65.4538 28.5124 65.1479 28.2914 64.7746 28.1853C65.3728 28.0438 65.8407 27.7432 66.2005 27.2879C66.5559 26.8326 66.7313 26.3242 66.7313 25.7627C66.7313 24.9935 66.4479 24.3569 65.9036 23.8618C65.3459 23.3667 64.5452 23.1191 63.506 23.1191H59.8579V32.4159H61.1219V28.6141H63.0787C63.6005 28.6141 64.0009 28.7423 64.2663 29.0031C64.5182 29.2772 64.7476 29.6662 64.9455 30.1879C64.9977 30.327 65.0529 30.5117 65.124 30.7494C65.1388 30.7986 65.1542 30.8502 65.1704 30.904C65.2649 31.2312 65.3548 31.5053 65.4493 31.7528C65.5438 32.0004 65.6472 32.2214 65.7822 32.4159H67.2216V32.2877C67.0597 32.0932 66.9293 31.8854 66.8213 31.6644ZM64.946 27.0886C64.6131 27.4157 64.1048 27.5705 63.4526 27.5705H61.1269V24.1577H63.3761C64.7616 24.1577 65.4543 24.6882 65.4543 25.758C65.4543 26.3194 65.2789 26.7615 64.946 27.0886Z" clip-rule="evenodd" fill-rule="evenodd"/>
<path fill="#0F2E2F" d="M65.7362 32.495H67.2882V32.2607L67.2702 32.2386C67.1172 32.0485 66.9823 31.8407 66.8788 31.6241C66.7709 31.4252 66.6899 31.2351 66.6314 31.0494V31.045C66.5909 30.9389 66.5414 30.793 66.483 30.6118C66.464 30.5504 66.4417 30.4842 66.4181 30.4142L66.4181 30.4142L66.4181 30.4141C66.4026 30.3681 66.3866 30.3204 66.3705 30.2714C66.1591 29.595 65.9612 29.122 65.7362 28.7904C65.5473 28.5163 65.3089 28.313 65.021 28.1892C65.5203 28.0256 65.9252 27.7427 66.2536 27.3272C66.6179 26.8674 66.8024 26.3369 66.8024 25.7578C66.8024 24.9709 66.519 24.3122 65.9522 23.7994C65.3809 23.2955 64.5532 23.0391 63.5006 23.0391H59.7715V32.4906H61.193V28.6888H63.0732C63.5726 28.6888 63.9504 28.8125 64.1978 29.0557C64.4452 29.3253 64.6701 29.7144 64.8636 30.2183C64.9109 30.3385 64.9582 30.496 65.0177 30.6938L65.0177 30.6938L65.0177 30.6938L65.0435 30.7798L65.0885 30.9256C65.174 31.2218 65.2684 31.5003 65.3719 31.7788C65.4753 32.0485 65.5833 32.2695 65.7138 32.4596L65.7362 32.495ZM67.1394 32.3402H65.8214C65.7089 32.1678 65.6145 31.9688 65.5245 31.7301C65.421 31.456 65.3311 31.182 65.2456 30.8902L65.2006 30.7443L65.1668 30.6316C65.1109 30.4449 65.0651 30.2917 65.0162 30.1696C64.8138 29.6435 64.5888 29.2457 64.3189 28.9583C64.04 28.6798 63.6217 28.5428 63.0774 28.5428H61.0397V32.3446H59.9331V23.1981H63.5048C64.5169 23.1981 65.3086 23.4413 65.8484 23.9187C66.3792 24.4006 66.6491 25.0195 66.6491 25.7621C66.6491 26.3059 66.4736 26.8054 66.1318 27.2387C65.7764 27.6852 65.3266 27.9725 64.7508 28.1095L64.4629 28.1803L64.7508 28.2598C65.1017 28.3571 65.394 28.5693 65.61 28.8788C65.8214 29.197 66.0193 29.6568 66.2262 30.3199L66.2589 30.4205L66.2589 30.4205L66.2589 30.4206C66.2866 30.5063 66.3127 30.5868 66.3387 30.6603C66.357 30.7142 66.3737 30.7647 66.3894 30.812L66.3894 30.812L66.3894 30.8121C66.4278 30.9277 66.4597 31.0239 66.4916 31.1024C66.5546 31.2925 66.6401 31.4958 66.748 31.6948C66.8515 31.9114 66.9819 32.1191 67.1394 32.3137V32.3402ZM63.4516 27.6502H61.0405V24.0827H63.3706C64.8011 24.0827 65.5253 24.6485 65.5253 25.7626C65.5253 26.3373 65.3454 26.8014 64.9945 27.1463C64.6572 27.4778 64.1353 27.6502 63.4516 27.6502ZM63.4507 27.4956H61.197V24.2375H63.3697C64.7147 24.2375 65.3669 24.737 65.3669 25.7626C65.3669 26.2931 65.205 26.7219 64.8856 27.0358C64.5752 27.3408 64.0939 27.4956 63.4507 27.4956Z" clip-rule="evenodd" fill-rule="evenodd"/>
<path fill="#0F2E2F" d="M74.4147 31.3771V32.4204H68.396V23.1191H74.3743V24.1624H69.66V27.1729H74.0954V28.2162H69.66V31.3815H74.4147V31.3771Z"/>
<path fill="#0F2E2F" d="M68.3145 32.495H74.4906V31.3014H69.7359V28.2909H74.1713V27.0929H69.7359V24.2371H74.4502V23.0391H68.3145V32.495ZM74.334 32.3405H68.4727V23.1896H74.2935V24.0782H69.5792V27.2434H74.0146V28.132H69.5792V31.452H74.334V32.3405Z" clip-rule="evenodd" fill-rule="evenodd"/>
<path fill="#0F2E2F" d="M83.6041 27.615C83.6041 26.2313 83.1768 25.1394 82.3131 24.3304C81.4449 23.5214 80.2484 23.1191 78.7189 23.1191H75.8535V32.4204H78.7954C80.2754 32.4204 81.4494 31.965 82.3131 31.0676C83.1768 30.1702 83.6041 29.0076 83.6041 27.615ZM82.34 27.6109C82.34 28.8134 82.0071 29.7373 81.3549 30.3872C80.6846 31.0503 79.8479 31.3774 78.8358 31.3818H77.1174V24.1628H78.7818C79.8344 24.1628 80.7026 24.4457 81.3549 25.0337C82.0071 25.6172 82.34 26.4792 82.34 27.6109Z" clip-rule="evenodd" fill-rule="evenodd"/>
<path fill="#0F2E2F" d="M75.772 32.495H78.7948C80.2838 32.495 81.4893 32.0308 82.371 31.1157C83.2437 30.2095 83.6845 29.0291 83.6845 27.6101C83.6845 26.2087 83.2392 25.0859 82.3665 24.2724C81.4893 23.4546 80.2613 23.0391 78.7139 23.0391H75.772V32.495ZM78.7956 32.3403H75.9302V23.1939H78.7146C80.2171 23.1939 81.4091 23.5917 82.2548 24.383C83.096 25.1699 83.5233 26.253 83.5233 27.6102C83.5233 28.9894 83.096 30.1344 82.2548 31.0097C81.4046 31.8939 80.2396 32.3403 78.7956 32.3403ZM78.8352 31.452H77.0359V24.0827H78.7812C79.8608 24.0827 80.747 24.3833 81.4038 24.9757C82.074 25.5769 82.4159 26.4655 82.4159 27.6104C82.4159 28.8217 82.0785 29.7722 81.4083 30.4397C80.7335 31.1117 79.8698 31.452 78.8352 31.452ZM78.8309 31.2967H77.1935H77.189V24.2324H78.7769C79.8205 24.2324 80.6662 24.5197 81.296 25.0856C81.9302 25.6603 82.2541 26.5091 82.2541 27.6098C82.2541 28.7769 81.9302 29.692 81.2915 30.3286C80.6482 30.9696 79.8205 31.2967 78.8309 31.2967Z" clip-rule="evenodd" fill-rule="evenodd"/>
<path stroke-width="1.5" stroke="#0F2E2F" d="M24.4691 55C22.3397 55 20.3364 54.1905 18.8283 52.728L3.21155 37.5441C1.70344 36.0772 0.870605 34.1227 0.870605 32.0431V4.73894C0.870605 2.68163 2.55878 1 4.62511 1H86.7696C88.3813 1 89.7093 2.32384 89.7093 3.9518V52.0214C89.7093 53.6493 88.4038 54.9732 86.7696 54.9732L24.4691 55Z" clip-rule="evenodd" fill-rule="evenodd"/>
<path fill="#0F2E2F" d="M72.147 12.6412C72.147 9.4745 74.7337 6.89648 77.9157 6.89648C81.0977 6.89648 83.6845 9.4745 83.6845 12.6412C83.6845 15.8078 81.0977 18.3858 77.9157 18.3858C74.7337 18.3858 72.147 15.8078 72.147 12.6412ZM83.0427 12.6414C83.0427 9.83134 80.7429 7.5412 77.9163 7.5412C75.0898 7.5412 72.79 9.83134 72.79 12.6414C72.79 15.4514 75.0898 17.7416 77.9163 17.7416C80.7429 17.7416 83.0427 15.4514 83.0427 12.6414Z" clip-rule="evenodd" fill-rule="evenodd"/>
</svg>