<svg xmlns="http://www.w3.org/2000/svg" fill="none" viewBox="0 0 40 41" height="41" width="40">
<path fill="#2F7D39" d="M17.5215 34.8996V31.5169L30.4783 31.5285C31.0755 31.5285 31.6381 31.2913 32.063 30.8636C32.4879 30.4321 32.7214 29.8605 32.7214 29.25C32.7214 27.9941 31.7147 26.9715 30.4783 26.9715L9.04304 26.9638C6.84593 26.9599 5.0622 25.1441 5.0622 22.9161C5.0622 21.8119 5.4756 20.7854 6.22966 20.0194C6.9799 19.2534 7.98276 18.8335 9.04687 18.8335L30.9913 18.8452C31.5884 18.8452 32.1549 18.608 32.5759 18.1803C33.0008 17.7487 33.2343 17.1771 33.2343 16.5667C33.2343 15.2952 32.2276 14.2571 30.9913 14.2571H9.00859C6.81148 14.261 5.02393 12.4413 5.02393 10.2095C5.02393 7.94262 6.81148 6.09961 9.00859 6.09961H33.4295V7.86875H9.00859C7.77224 7.86875 6.76554 8.89135 6.76554 10.1472C6.76554 11.4615 7.74927 12.4879 9.00859 12.4879H30.9913C33.1884 12.4879 34.9759 14.3037 34.9759 16.5356C34.9759 17.6359 34.5625 18.6663 33.8085 19.4284C33.0544 20.1905 32.0554 20.6143 30.9913 20.6143L9.04687 20.6026C8.44975 20.6026 7.88707 20.8398 7.46219 21.2675C7.03731 21.6991 6.80382 22.2707 6.80382 22.8811C6.80382 24.1526 7.81051 25.1907 9.04687 25.1907L30.4822 25.2024C32.6755 25.2024 34.463 27.0182 34.463 29.25C34.463 30.331 34.0496 31.3497 33.2956 32.1157C32.5415 32.8777 31.5424 33.3016 30.4783 33.3016L19.9329 33.2899C19.753 33.2899 19.5846 33.3599 19.4583 33.4921C19.332 33.6204 19.2593 33.7915 19.2593 33.9742V34.8996H17.5215Z"/>
</svg>