<svg viewBox="0 0 12 14" fill="none" class="ag-225" focusable="false" aria-hidden="true" xmlns="http://www.w3.org/2000/svg"><path fill="currentColor" fill-rule="evenodd" d="M6.456 0c-.996 0-2 .243-2.797.78-.797.536-1.361 1.407-1.361 2.466v2.621h-.694c-.382.001-.691.28-.69.625v6.244c0 .344.309.622.69.623h9.704c.382 0 .69-.279.692-.623V6.492c0-.344-.31-.624-.692-.625h-.694V3.246c0-1.06-.563-1.93-1.36-2.466C8.456.243 7.452 0 6.456 0Zm0 1.248c.737 0 1.465.195 1.967.533.501.337.806.777.806 1.465v2.621H3.684v-2.62c0-.689.302-1.129.804-1.466.501-.338 1.231-.533 1.968-.533Z" clip-rule="evenodd"></path></svg>